# xmcd
#
# Track frame offsets: 
#        150
#        16377
#        36737
#        60417
#        86445
#
# Disc length: 1349 seconds
#
# Revision: 0
# Processed by: cddbd v1.5.2PL0 Copyright (c) Steve Scherf et al.
# Submitted via: ExactAudioCopy v0.95b4
#
DISCID=38054305
DTITLE=McMahon, Patrick - Honesty
DYEAR=1900
DGENRE=Country
TTITLE0=No Exception To The Rule
TTITLE1=Call For Me
TTITLE2=Our Love Got Lazy
TTITLE3=Honesty
TTITLE4=Keep Your Spirits High
EXTD=
EXTT0=
EXTT1=
EXTT2=
EXTT3=
EXTT4=
PLAYORDER=
